<?xml version="1.0" encoding="UTF-8"?>
<svg xmlns="http://www.w3.org/2000/svg" viewBox="0 0 760 1200" data-asset="yu/stand-blank" aria-hidden="true">
<defs>
    <radialGradient id="skin" cx="36%" cy="30%" r="72%">
      <stop offset="0%" stop-color="#fff3ea"/>
      <stop offset="58%" stop-color="#f3dcc8"/>
      <stop offset="100%" stop-color="#e6c4ae"/>
    </radialGradient>
    <linearGradient id="cloth" x1="0" y1="0" x2="0.4" y2="1">
      <stop offset="0%" stop-color="#fbf6ea"/>
      <stop offset="48%" stop-color="#f3e6c8"/>
      <stop offset="100%" stop-color="#ddc89a"/>
    </linearGradient>
    <linearGradient id="hairG" x1="0.2" y1="0" x2="0.8" y2="1">
      <stop offset="0%" stop-color="#4a4034"/>
      <stop offset="42%" stop-color="#2a241c"/>
      <stop offset="100%" stop-color="#14110e"/>
    </linearGradient>
    <radialGradient id="irisG" cx="35%" cy="32%" r="70%">
      <stop offset="0%" stop-color="#a08060"/>
      <stop offset="62%" stop-color="#3a2c22"/>
      <stop offset="100%" stop-color="#120c0a"/>
    </radialGradient>
    <filter id="air" x="-50%" y="-50%" width="200%" height="200%">
      <feGaussianBlur stdDeviation="7"/>
    </filter>
  </defs>
<g id="figure" transform="">
    <path d="M 250 300 C 246 180 300 120 380 116 C 470 112 530 180 520 310 C 500 250 450 230 380 236 C 310 230 270 260 250 300 Z" fill="url(#hairG)"/>
    <path d="M 268 250 C 300 200 460 190 510 260 C 470 220 400 214 340 230 C 300 220 280 236 268 250 Z" fill="url(#hairG)" opacity="1"/>
    <path d="M 330 150 C 360 190 390 170 420 200" fill="none" stroke="#1a1612" stroke-width="3" opacity="0.45"/>
    <path d="M 332 520 C 340 590 336 640 352 690 L 408 690 C 424 640 420 590 428 520 Z" fill="url(#skin)"/>
    <path d="M 348 560 C 360 620 356 660 380 688 C 360 650 352 600 348 560 Z" fill="#e6c4ae" opacity="0.35"/>
    <path d="M 168 690 C 190 600 280 560 340 590 L 420 590 C 490 560 570 600 592 690 L 640 1220 L 120 1220 Z" fill="url(#cloth)"/>
    <path d="M 300 650 C 340 770 340 910 320 1050" fill="none" stroke="#ddc89a" stroke-width="10" stroke-linecap="round" opacity="0.35"/>
    <path d="M 470 670 C 500 810 490 950 520 1070" fill="none" stroke="#fff" stroke-width="8" stroke-linecap="round" opacity="0.18"/>
    <path d="M 248 654 L 332 582 L 380 626 L 428 582 L 512 654 L 496 1030 L 264 1030 Z" fill="#e6cf9a"/>
        <path d="M 346 594 L 368 662 L 392 662 L 414 594 Z" fill="#fffaf2"/>
        <path d="M 380 670 V 990" stroke="#8a6230" stroke-width="3" opacity="0.55"/>
    <path d="M 156 710 C 124 860 146 1020 198 1160 L 252 1140 C 220 980 214 820 246 710 Z" fill="url(#cloth)" stroke="#8a6230" stroke-width="2" stroke-opacity="0.25"/>
    <path d="M 604 710 C 636 860 614 1020 562 1160 L 508 1140 C 540 980 546 820 514 710 Z" fill="url(#cloth)" stroke="#8a6230" stroke-width="2" stroke-opacity="0.25"/>
    <g id="head" transform="translate(380 390) scale(1.16) translate(-380 -390)">
    
    <ellipse cx="236" cy="378" rx="24" ry="34" fill="url(#skin)"/>
    <ellipse cx="524" cy="378" rx="24" ry="34" fill="url(#skin)"/>
    <path d="M 236 362 C 226 380 228 400 240 408" fill="none" stroke="#c8a498" stroke-width="2" opacity="0.7"/>
    <path d="M 524 362 C 534 380 532 400 520 408" fill="none" stroke="#c8a498" stroke-width="2" opacity="0.7"/>
    <path d="M 262 336 C 254 206 308 162 380 158 C 456 162 510 212 500 340 C 492 452 456 528 380 536 C 306 528 270 454 262 336 Z" fill="url(#skin)"/>
    <path d="M 300 520 Q 380 500 460 520" fill="#e6c4ae" opacity="0.18"/>
    
    
    
    <g id="features" transform="translate(380 410) scale(1.28) translate(-380 -410)">
      <g id="features-brow" fill="none" stroke="#2a1c16" stroke-width="3.4" stroke-linecap="round"><path d="M 280 316 H 328"/><path d="M 432 316 H 480"/></g>
      <g id="features-eyes"><path d="M 288 352 H 320" fill="none" stroke="#241810" stroke-width="4" stroke-linecap="round"/><path d="M 440 352 H 472" fill="none" stroke="#241810" stroke-width="4" stroke-linecap="round"/></g>
      <path d="M 380 392 C 372 418 370 436 366 452" fill="none" stroke="#d7b2a8" stroke-width="3.2" stroke-linecap="round" opacity="0.8"/>
    <ellipse cx="362" cy="456" rx="8" ry="4.5" fill="#e7b8ae" opacity="0.35"/>
      <g id="features-mouth"><path d="M 332 468 H 428" fill="none" stroke="#c48a78" stroke-width="3.5" stroke-linecap="round"/></g>
    </g>
    
    <path d="M 286 230 C 310 170 360 150 410 168 C 460 150 510 190 500 246 C 460 200 400 220 350 196 C 310 214 292 210 286 230 Z" fill="url(#hairG)"/>
    
  </g>
  </g>
</svg>
